<svg xmlns="http://www.w3.org/2000/svg" version="1.1" xmlns:xlink="http://www.w3.org/1999/xlink" xmlns:svgjs="http://svgjs.dev/svgjs" width="1500" height="1500" viewBox="0 0 1500 1500"><rect width="1500" height="1500" fill="#000000"></rect><g transform="matrix(0.6666666666666666,0,0,0.6666666666666666,248.44236760124625,189.33333333333348)"><svg viewBox="0 0 321 360" data-background-color="#fdffff" preserveAspectRatio="xMidYMid meet" height="1682" width="1500" xmlns="http://www.w3.org/2000/svg" xmlns:xlink="http://www.w3.org/1999/xlink"><g id="tight-bounds" transform="matrix(1,0,0,1,0.5,0)"><svg viewBox="0 0 320 360" height="360" width="320"><g><svg></svg></g><g><svg viewBox="0 0 320 360" height="360" width="320"><g><path d="M20.961 227.22l3.726 4.658-1.863-6.056c-0.466-2.795-3.726 0.466-1.863 1.398M25.153 224.425c1.397 2.329 2.795 4.658 2.795 6.987 0 3.261 2.795 4.658 5.123 5.589-3.261-3.726-5.124-13.974-7.918-12.576M204.017 26.929c7.918 0 15.371-0.932 23.756 0.931 20.495 5.124 37.729 15.371 49.374 29.811l32.606 52.169c1.397 13.042 4.192 27.482 3.726 43.319 3.261 0 2.795-4.658 6.521-5.59-3.726 9.316-5.59 20.961-6.521 34.469-2.329-7.453 0-18.632 0.466-24.687-3.261 5.124-5.124 1.397-5.124-0.932 0.466-3.726-1.397-3.261-2.795-4.658-5.124-4.658-8.384-9.782-12.11-17.7 2.329-6.055 2.795-14.905-4.658-19.563-2.329-1.397-5.124-3.726-6.521-7.453-1.863-5.124-5.124-11.179-4.193-19.097 0.466-2.329-6.987 5.124-11.179 1.863-18.166-12.576-36.332-27.016-58.224-39.127-11.645 0-20.029-4.192-24.221-9.316-3.726-4.658-0.932-10.713 4.658-11.179 3.261 0 6.987-0.932 9.782 0.932 0.466-1.863 2.329-4.192 4.657-4.192M157.904 16.215l0.932 0.466c4.658 0.932 6.987 7.453 12.11 5.124 0 3.261 0.466 6.521-0.466 8.85-1.397 3.726-5.59 3.726-8.85 3.726-31.208-1.863-49.374 11.179-68.471 22.358-5.124 3.261-10.713 5.59-14.906 9.782-20.029 18.632-41.921 35.866-47.045 70.335l-4.192 38.195c-0.466 4.192-5.124 8.384-4.192 13.508l3.26 22.824c-3.261-3.261-5.124 0.932-4.192 2.795 0.466 1.397 2.329 6.055 5.124 1.863 3.726 6.987 7.453 20.495 12.576 26.55 15.837 18.632 36.332 35.4 53.101 52.169 4.192-0.932 7.453-0.932 8.384-3.727 1.397 2.795-1.397 5.59-3.726 6.056 7.453 4.658 15.837 8.85 27.016 9.781 14.44 0.932 27.948 3.261 40.524 6.522 6.521-1.863 13.042-2.795 20.029-3.261 2.329 0 3.726-3.726 6.521-4.658l0.466-4.658c2.795 4.192 2.329-1.397 0.466-4.192 3.261 2.795 4.192 5.124 5.589 6.987 0-1.397 3.726-6.521 3.727-0.466l0.931-6.055c1.397-0.932 1.863 5.124 3.261 0.931 1.397-4.192 4.192-0.932 6.987-2.329-0.932 1.863-0.466 5.59 2.794 3.261l3.727-3.261c2.329 5.59 6.055 3.261 7.918 2.329 20.495-13.042 40.99-28.413 60.553-43.784l-0.466 6.055 2.329-7.453c2.329 2.329 4.192 0.466 5.124-0.931 2.795-4.658 6.521-9.316 12.577-13.508-7.453 20.029-16.303 35.866-27.482 48.908l-4.658 5.59c0 3.261-0.932 7.453-4.658 7.918-1.863 0.466-5.59-0.932-8.384 1.863-1.397 1.863 3.261 5.59-0.466 2.795-3.261-2.329-6.521 0-10.248 0.932-2.795 0.932 1.863 3.726 2.795 5.589 0.932 1.863 1.863 3.726 1.398 6.056l-5.124-5.59c-6.055 3.261-9.782 9.316-14.906 13.974-2.329 1.863-1.397 5.124-1.397 7.918-3.261 0-6.987-0.932-8.85 0.932-1.397 1.863-0.932 4.658-0.932 7.453-4.658-0.466-5.124-7.453-9.315-6.056-4.192 0.932-8.85 1.397-12.577 3.727 2.795 5.59-4.658 2.329-3.726 3.26-6.987-4.192-13.042-7.453-20.495-4.658-15.837-5.124-35.4-2.795-49.84-0.931 0-2.329 0.466-4.658-0.466-5.124-0.932 2.329-3.726 1.397-3.26 1.397-8.85-6.055-17.7-9.782-27.016-14.905-8.384 0.932-16.303-3.261-18.632-5.59-6.521-6.055-13.974-2.795-20.029-4.192-13.042-3.261-17.7-16.769-19.098-26.084-0.932-4.658-4.658-6.521-6.055-6.056-6.055-19.563-15.371-37.263-22.824-55.429-1.863-4.658-1.397-9.316-1.397-14.44 2.329 0.932 4.658 0.466 4.192-2.794-2.329-15.371-7.918-27.016-13.974-38.195 3.261-15.837 3.726-34.469 11.179-48.443 6.521-12.576 18.632-19.098 27.016-29.811 2.795-3.726 2.795-8.85 5.59-12.11 9.316-9.316 18.632-19.098 28.879-27.482 4.658-3.726 10.247 0 17.234-1.397 2.329-8.384 11.645-15.837 20.495-13.508 3.726 0.932 11.179-8.85 13.508-9.782 3.726-1.397 1.863 3.726 1.863 6.987 8.85-6.987 20.961-10.713 32.14-14.906" fill="#ffffff" fill-rule="nonzero" stroke="none" stroke-width="1" stroke-linecap="butt" stroke-linejoin="miter" stroke-miterlimit="10" stroke-dasharray="" stroke-dashoffset="0" font-family="none" font-weight="none" font-size="none" text-anchor="none" style="mix-blend-mode: normal" data-fill-palette-color="tertiary"></path></g><g transform="matrix(1,0,0,1,64,126.58132375340935)"><svg viewBox="0 0 192 106.83735249318131" height="106.83735249318131" width="192"><g><svg viewBox="0 0 192 106.83735249318131" height="106.83735249318131" width="192"><g><svg viewBox="0 0 192 106.83735249318131" height="106.83735249318131" width="192"><g id="textblocktransform"><svg viewBox="0 0 192 106.83735249318131" height="106.83735249318131" width="192" id="textblock"><g><svg viewBox="0 0 192 77.7642035145274" height="77.7642035145274" width="192"><path d="M191.55 16.679C190.648 8.607 188.075 6.363 188.075 6.363 180.177-1.951 170.321-0.159 161.466 1.036 145.832 1.084 130.262 2.86 114.664 3.812 81.926 3.958 48.907 1.568 16.331 7.461 13.271 9.269-3.175 7.816 0.544 17.712 1.519 21.829 5.075 26.397 4.967 30.175 5.455 30.837 6.132 29.32 6.42 30.272 7.431 32.839 9.083 31.628 10.437 33.146 8.551 37.198 9.905 40.572 11.195 44.107 8.921 45.027 6.005 44.592 4.696 47.643 4.561 49.854 3.83 49.435 3.027 49.338 2.44 49.273 1.257 49.515 1.456 50.21 2.133 52.583-0.774 53.955 1.05 56.28-0.205 58.798 1.916 60.978 1.627 63.706 1.591 64.255 1.79 64.723 2.106 64.852 3.505 65.546 1.465 66.902 1.682 68.371 16.033 78.413 31.604 71.471 46.308 76.088 50.126 72.859 47.256 77.234 48.781 76.556 49.972 75.765 50.839 79.042 52.184 77.186 52.392 76.653 52.076 75.394 52.816 75.636 53.204 75.765 53.547 75.733 53.601 74.99 53.682 73.876 52.969 74.571 52.78 73.989 54.829 71.051 54.323 78.041 56.246 77.751 56.156 76.895 55.596 75.668 56.742 75.83 57.88 74.603 57.916 73.586 58.927 76.346 58.963 76.944 59.143 77.363 59.432 77.654 62.591 74.651 65.732 78.72 69.045 77.363 71.076 75.878 73.026 78.171 75.084 77.606 75.806 77.154 76.537 76.346 77.232 77.702 85.744 77.993 94.815 76.782 102.885 77.751 124.449 75.943 147.493 78.494 170.23 76.104 175.592 75.184 181.161 73.876 186.387 72.827 186.387 72.827 190.621 69.953 190.621 57.038S191.523 45.738 191.659 35.454C191.794 25.171 192.426 24.751 191.523 16.679Z" opacity="1" fill="#ffffff" data-fill-palette-color="tertiary"></path><g transform="matrix(1,0,0,1,27.072000000000003,18.981962000000003)"><svg width="137.856" viewBox="0 -38.7 135.94 39.25" height="39.800279514527396" data-palette-color="#020303"><path d="M8.85-29.45L0-28.75 0.55-34.5 24.3-34.5 23.75-28.75 15.05-29.5 14.85-13 15.45 0 8.45 0 9.05-12.15 8.85-29.45ZM26.65-24.15L26.65-24.15 32.7-25.45Q33.15-21.6 33.3-18.15L33.3-18.15Q37.85-25.2 41.85-25.2L41.85-25.2 41.3-17.4Q38.4-17.4 36.72-16.88 35.05-16.35 33.3-14.8L33.3-14.8 33.3-13 33.85-1.25 27.15 0 27.75-12.15Q27.55-18.85 26.65-24.15ZM53.99-5.1L53.99-5.1Q55.45-5.1 57.05-5.85 58.64-6.6 59.55-7.35L59.55-7.35 60.45-8.1 62.75-5.3Q62.25-4.45 61.2-3.35 60.14-2.25 59.07-1.48 57.99-0.7 56.22-0.08 54.45 0.55 52.55 0.55L52.55 0.55Q48.49 0.55 45.95-2.53 43.39-5.6 43.39-10.45L43.39-10.45Q43.39-16.55 46.95-21.15 50.49-25.75 55.24-25.75L55.24-25.75Q58.89-25.75 60.92-23.7 62.95-21.65 62.95-17.95L62.95-17.95Q62.95-15.75 62.2-12.95L62.2-12.95 61.2-11.9 48.7-10.75Q49.55-5.1 53.99-5.1ZM53.99-20.6L53.99-20.6Q51.8-20.6 50.3-18.82 48.8-17.05 48.55-14.3L48.55-14.3 57.05-15.35Q57.2-16.5 57.2-17.25L57.2-17.25Q57.2-20.6 53.99-20.6ZM81.79-12.65Q81.79-16.1 81.19-17.25 80.59-18.4 78.39-18.4 76.19-18.4 73.39-16.65L73.39-16.65 73.39-13 73.94-1.25 67.24 0 67.84-12.15Q67.64-18.85 66.74-24.15L66.74-24.15 72.79-25.45Q73.14-22.55 73.29-19.8L73.29-19.8Q74.04-20.8 74.99-21.78 75.94-22.75 77.99-23.98 80.04-25.2 82.32-25.2 84.59-25.2 86.14-23.43 87.69-21.65 87.69-18.6L87.69-18.6 87.39-13 87.94-1 81.19 0.25 81.79-12.65ZM106.64-4.9L106.64-4.9Q102.74 0 99.89 0L99.89 0Q96.34 0 94.07-2.9 91.79-5.8 91.79-10.35L91.79-10.35Q91.79-16.6 95.27-20.9 98.74-25.2 103.79-25.2L103.79-25.2 106.59-24.8 106.59-25.75 105.99-37.45 112.84-38.7 112.19-13 112.19-8.6Q112.19-5.6 113.69-1.7L113.69-1.7 108.29 0.55Q106.84-2.45 106.64-4.9ZM97.39-12.95Q97.39-9.75 98.57-7.95 99.74-6.15 101.97-6.15 104.19-6.15 106.59-7.95L106.59-7.95 106.59-18.75Q103.59-19.35 102.14-19.35L102.14-19.35Q99.89-19.35 98.64-17.75 97.39-16.15 97.39-12.95ZM116.84 0.3L117.69-4.95 128.24-20 117.19-19.25 118.34-25.55 126.89-25 135.24-25.6 134.39-20.4 123.79-5.3 135.94-6 134.84 0.3 126.34-0.25 116.84 0.3Z" opacity="1" transform="matrix(1,0,0,1,0,0)" fill="#000000" class="wordmark-text-0" data-fill-palette-color="quaternary" id="text-0"></path></svg></g></svg></g><g transform="matrix(1,0,0,1,59.83309682379777,87.16009430119897)"><svg viewBox="0 0 72.33380635240447 19.677258191982347" height="19.677258191982347" width="72.33380635240447"><g transform="matrix(1,0,0,1,0,0)"><svg width="72.33380635240447" viewBox="1.34 -36.84 137.66 37.45" height="19.677258191982347" data-palette-color="#000000"><path d="M16.65-3.05L16.65-3.05 16.65-1.05Q16.65-1.05 15.71-0.63 14.77-0.22 13.24 0.2 11.72 0.61 9.91 0.61L9.91 0.61Q7.1 0.61 5.82-0.72 4.54-2.05 4.54-5L4.54-5 4.54-21.61 1.34-21.61 1.34-23.24 4.76-24.85 7.01-30.15 9.2-30.15 9.2-24.1 16.26-24.1 16.26-21.61 9.2-21.61 9.2-7.64Q9.2-4.66 10.21-3.43 11.21-2.2 13.21-2.2L13.21-2.2Q14.67-2.2 15.66-2.62 16.65-3.05 16.65-3.05ZM36.03-23.95L36.03-18.99 34.08-18.99Q33.62-19.56 32.97-19.96 32.32-20.36 31.39-20.36L31.39-20.36Q30.2-20.36 28.94-19.53 27.68-18.7 26.39-17.26L26.39-17.26 26.39-3.2Q26.39-2.15 27.44-2.1L27.44-2.1 30.73-1.95 30.73 0 18.23 0 18.23-1.9 20.7-2.1Q21.14-2.15 21.45-2.44 21.75-2.73 21.75-3.2L21.75-3.2 21.75-20.56 18.14-20.56 18.14-22.19 24.34-24.1 26.39-24.1 26.39-19.65Q27.12-20.46 28.22-21.66 29.32-22.85 30.56-23.78 31.81-24.71 32.98-24.71L32.98-24.71Q33.76-24.71 34.67-24.46 35.57-24.22 36.03-23.95L36.03-23.95ZM59.35-5.54L59.35-2.49Q57.25-1.2 54.82-0.29 52.39 0.61 49.85 0.61L49.85 0.61Q46.82 0.61 44.17-0.74 41.52-2.1 39.89-4.86 38.25-7.62 38.25-11.79L38.25-11.79Q38.25-15.7 39.77-18.6 41.28-21.51 43.94-23.11 46.6-24.71 50-24.71L50-24.71Q54.66-24.71 57-21.81 59.35-18.92 59.35-14.45L59.35-14.45Q59.35-14.21 59.35-13.81 59.35-13.4 59.3-13.06L59.3-13.06 43.09-13.06Q43.09-11.16 43.49-9.27 43.89-7.37 44.84-5.83 45.8-4.3 47.41-3.37 49.02-2.44 51.44-2.44L51.44-2.44Q53.58-2.44 55.62-3.43 57.66-4.42 59.35-5.54L59.35-5.54ZM43.35-15.31L54.34-15.31 54.34-16.41Q54.34-18.87 53.16-20.56 51.97-22.24 49.48-22.24L49.48-22.24Q47.02-22.24 45.28-20.39 43.55-18.53 43.35-15.31L43.35-15.31ZM88.4-1.95L88.4 0 77.36 0 77.36-1.95 79.46-2.1Q79.9-2.15 80.2-2.44 80.51-2.73 80.51-3.2L80.51-3.2 80.51-16.21Q80.51-18.58 79.41-19.81 78.31-21.04 75.7-21.04L75.7-21.04Q74.28-21.04 72.88-20.64 71.48-20.24 70.21-19.6L70.21-19.6 70.21-3.2Q70.21-2.17 71.26-2.1L71.26-2.1 73.36-1.95 73.36 0 62.05 0 62.05-1.95 64.49-2.1Q65.54-2.17 65.54-3.2L65.54-3.2 65.54-20.56 62.05-20.56 62.05-22.19 68.16-24.1 70.21-24.1 70.21-21.61Q72.31-22.8 74.52-23.75 76.73-24.71 78.46-24.71L78.46-24.71Q81.73-24.71 83.44-22.67 85.15-20.63 85.15-16.99L85.15-16.99 85.15-3.2Q85.15-2.73 85.45-2.44 85.76-2.15 86.2-2.1L86.2-2.1 88.4-1.95ZM116.3-1.95L116.3 0 108.44 0 108.44-2.66Q106.73-1.34 104.8-0.37 102.87 0.61 100.7 0.61L100.7 0.61Q98.18 0.61 96.36-0.45 94.55-1.51 93.39-3.27 92.23-5.03 91.66-7.15 91.1-9.28 91.1-11.4L91.1-11.4Q91.1-14.79 92.49-17.83 93.89-20.87 96.72-22.79 99.55-24.71 103.85-24.71L103.85-24.71Q105.04-24.71 106.45-24.48 107.85-24.24 108.44-24.1L108.44-24.1 108.44-33.25 104.65-33.25 104.65-34.91 111.1-36.84 113.1-36.84 113.1-3.2Q113.1-2.17 114.15-2.1L114.15-2.1 116.3-1.95ZM108.44-4.54L108.44-4.54 108.44-21.56Q107.8-21.78 106.55-22.03 105.29-22.29 104.19-22.29L104.19-22.29Q100.48-22.29 98.26-19.54 96.03-16.8 96.03-12.26L96.03-12.26Q96.03-8.18 97.94-5.49 99.84-2.81 103.29-2.81L103.29-2.81Q104.8-2.81 106.13-3.38 107.46-3.96 108.44-4.54ZM139-7.54L139 0 119.3 0 119.3-2.66 132.53-21.75 123.84-21.75Q123.47-21.75 123.19-21.4 122.91-21.04 122.84-20.7L122.84-20.7 122.35-16.99 119.79-16.99 119.79-24.1 138.29-24.1 138.29-22.05 124.6-2.39 134.68-2.39Q135.02-2.39 135.39-2.81 135.75-3.22 135.78-3.59L135.78-3.59 136.29-7.54 139-7.54Z" opacity="1" transform="matrix(1,0,0,1,0,0)" fill="#ffffff" class="slogan-text-1" data-fill-palette-color="secondary" id="text-1"></path></svg></g></svg></g></svg></g></svg></g><g></g></svg></g></svg></g></svg></g><defs></defs></svg><rect width="320" height="360" fill="none" stroke="none" visibility="hidden"></rect></g></svg></g></svg>